<svg width="1075" height="585" viewBox="0 0 1075 585" fill="none" xmlns="http://www.w3.org/2000/svg">
<g clip-path="url(#clip0)">
<path d="M540.643 584.231C831.974 584.231 1068.14 568.596 1068.14 549.309C1068.14 530.023 831.974 514.388 540.643 514.388C249.313 514.388 13.1434 530.023 13.1434 549.309C13.1434 568.596 249.313 584.231 540.643 584.231Z" fill="#F2F2F2"/>
<path d="M486.651 167.01C400.707 167.01 339 222.149 339 350.808C339 496.621 400.707 535.218 486.651 535.218C572.595 535.218 637.978 492.945 637.978 350.808C637.978 198.868 572.595 167.01 486.651 167.01ZM487.216 486.818C427.689 486.818 396.59 451.895 396.59 350.902C396.59 261.79 428.962 214.797 488.489 214.797C548.016 214.797 580.388 245.665 580.388 350.902C580.388 449.349 546.743 486.818 487.216 486.818Z" fill="#2F2E41"/>
<path d="M813.651 165C727.707 165 666 220.139 666 348.798C666 494.611 727.707 533.208 813.651 533.208C899.595 533.208 964.978 490.935 964.978 348.798C964.978 196.858 899.595 165 813.651 165ZM814.216 484.808C754.689 484.808 723.59 449.885 723.59 348.892C723.59 259.78 755.962 212.787 815.489 212.787C875.016 212.787 907.388 243.655 907.388 348.892C907.388 447.339 873.743 484.808 814.216 484.808Z" fill="#2F2E41"/>
<path d="M315.507 433.517H279.973V328.877C279.973 323.32 277.765 317.989 273.835 314.059C269.905 310.129 264.575 307.922 259.017 307.922H250.69C247.939 307.922 245.213 308.464 242.671 309.517C240.129 310.57 237.818 312.113 235.872 314.059C233.927 316.005 232.383 318.315 231.33 320.858C230.277 323.4 229.735 326.125 229.735 328.877V433.517H129.505C127.443 433.517 125.416 432.984 123.62 431.97C121.825 430.955 120.322 429.494 119.258 427.728C118.194 425.962 117.604 423.951 117.546 421.89C117.488 419.829 117.964 417.788 118.927 415.965L225.009 215.184C226.332 212.681 227.133 209.936 227.366 207.114C227.598 204.293 227.256 201.453 226.361 198.768C225.466 196.082 224.035 193.605 222.156 191.487C220.277 189.37 217.989 187.654 215.429 186.446L209.167 183.488C204.304 181.192 198.745 180.853 193.639 182.541C188.534 184.23 184.272 187.816 181.737 192.558L52.3558 434.591C50.1526 438.712 49 443.314 49 447.987C49 451.719 49.735 455.414 51.163 458.861C52.5911 462.309 54.6842 465.441 57.3228 468.08C59.9615 470.719 63.094 472.812 66.5416 474.24C69.9891 475.668 73.6842 476.403 77.4158 476.403H229.735V542.57C229.735 545.869 230.384 549.135 231.647 552.183C232.909 555.23 234.759 557.999 237.092 560.332C239.424 562.664 242.193 564.515 245.241 565.777C248.289 567.039 251.555 567.689 254.854 567.689H254.854C258.152 567.689 261.419 567.039 264.466 565.777C267.514 564.515 270.283 562.664 272.615 560.332C274.948 557.999 276.798 555.23 278.061 552.183C279.323 549.135 279.973 545.869 279.973 542.57V476.403H315.507C321.194 476.403 326.648 474.144 330.669 470.122C334.691 466.101 336.95 460.647 336.95 454.96C336.95 449.273 334.691 443.819 330.67 439.797C326.648 435.776 321.194 433.517 315.507 433.517Z" fill="#1BA4FD"/>
<path d="M325.31 421.264H289.775V316.624C289.775 313.872 289.233 311.147 288.18 308.605C287.127 306.062 285.583 303.752 283.637 301.806C281.692 299.86 279.381 298.317 276.839 297.263C274.296 296.21 271.571 295.668 268.819 295.668H260.493C254.935 295.668 249.605 297.876 245.675 301.806C241.745 305.736 239.537 311.066 239.537 316.624V421.264H139.307C137.245 421.264 135.218 420.731 133.423 419.716C131.628 418.702 130.125 417.241 129.061 415.475C127.996 413.709 127.407 411.698 127.349 409.637C127.291 407.576 127.766 405.535 128.729 403.712L234.812 202.931C236.134 200.428 236.936 197.683 237.168 194.861C237.401 192.04 237.059 189.2 236.163 186.514C235.268 183.828 233.838 181.352 231.959 179.234C230.08 177.116 227.792 175.401 225.231 174.192L218.969 171.235C214.107 168.939 208.547 168.6 203.442 170.288C198.336 171.976 194.075 175.563 191.54 180.305L62.1584 422.338C59.9552 426.459 58.8026 431.06 58.8026 435.734V435.734C58.8026 443.27 61.7964 450.498 67.1254 455.827C72.4544 461.156 79.682 464.15 87.2184 464.15H239.537V530.317C239.537 533.616 240.187 536.882 241.449 539.93C242.712 542.977 244.562 545.746 246.894 548.079C249.227 550.411 251.996 552.262 255.044 553.524C258.091 554.786 261.357 555.436 264.656 555.436H264.656C271.318 555.436 277.707 552.789 282.418 548.079C287.129 543.368 289.775 536.979 289.775 530.317V464.15H325.309C328.125 464.15 330.914 463.595 333.515 462.517C336.117 461.44 338.481 459.86 340.472 457.869C342.463 455.878 344.043 453.514 345.12 450.913C346.198 448.311 346.753 445.523 346.753 442.707V442.707C346.753 439.891 346.198 437.102 345.12 434.501C344.043 431.899 342.463 429.535 340.472 427.544C338.481 425.553 336.117 423.973 333.515 422.896C330.914 421.818 328.125 421.264 325.31 421.264V421.264Z" stroke="#3F3D56" stroke-miterlimit="10"/>
<path d="M506.256 155.982C420.312 155.982 358.605 211.121 358.605 339.78C358.605 485.593 420.312 524.19 506.256 524.19C592.2 524.19 657.583 481.917 657.583 339.78C657.583 187.84 592.2 155.982 506.256 155.982ZM506.821 475.79C447.294 475.79 416.195 440.867 416.195 339.874C416.195 250.762 448.567 203.769 508.094 203.769C567.621 203.769 599.993 234.637 599.993 339.874C599.993 438.321 566.348 475.79 506.821 475.79V475.79Z" stroke="#3F3D56" stroke-miterlimit="10"/>
<path d="M836.651 158C750.707 158 689 213.139 689 341.798C689 487.611 750.707 526.208 836.651 526.208C922.595 526.208 987.978 483.935 987.978 341.798C987.978 189.858 922.595 158 836.651 158ZM837.216 477.808C777.689 477.808 746.59 442.886 746.59 341.892C746.59 252.78 778.962 205.787 838.489 205.787C898.016 205.787 930.388 236.655 930.388 341.892C930.388 440.339 896.743 477.808 837.216 477.808V477.808Z" stroke="#3F3D56" stroke-miterlimit="10"/>
<path d="M813.651 165C727.707 165 666 220.139 666 348.798C666 494.611 727.707 533.208 813.651 533.208C899.595 533.208 964.978 490.935 964.978 348.798C964.978 196.858 899.595 165 813.651 165ZM814.216 484.808C754.689 484.808 723.59 449.886 723.59 348.892C723.59 259.78 755.962 212.787 815.489 212.787C875.016 212.787 907.388 243.655 907.388 348.892C907.388 447.339 873.743 484.808 814.216 484.808V484.808Z" stroke="#3F3D56" stroke-miterlimit="10"/>
<path d="M437.366 31.1516C444.491 31.1516 450.268 25.3756 450.268 18.2505C450.268 11.1253 444.491 5.34927 437.366 5.34927C430.241 5.34927 424.465 11.1253 424.465 18.2505C424.465 25.3756 430.241 31.1516 437.366 31.1516Z" fill="#2F2E41"/>
<path d="M468.833 93.7695C488.818 93.7695 505.019 72.7785 505.019 46.8848C505.019 20.991 488.818 0 468.833 0C448.848 0 432.646 20.991 432.646 46.8848C432.646 72.7785 448.848 93.7695 468.833 93.7695Z" fill="#2F2E41"/>
<path opacity="0.1" d="M468.833 79.6097C450.705 79.6097 435.691 62.3392 433.057 39.8048C432.783 42.1548 432.646 44.5188 432.646 46.8848C432.646 72.7785 448.848 93.7695 468.833 93.7695C488.818 93.7695 505.019 72.7785 505.019 46.8848C505.02 44.5188 504.882 42.1548 504.608 39.8048C501.974 62.3392 486.96 79.6097 468.833 79.6097Z" fill="black"/>
<path d="M542.467 184.189C541.69 187.382 538.34 189.94 534.629 191.727C526.827 195.483 517.203 196.605 507.869 196.981C505.488 197.126 503.099 197.081 500.724 196.849C496.124 196.404 491.807 194.42 488.474 191.217C488.236 191.062 488.041 190.849 487.908 190.599C487.774 190.348 487.707 190.067 487.711 189.783C487.715 189.499 487.792 189.221 487.933 188.975C488.074 188.728 488.275 188.521 488.518 188.374C493.487 182.915 501.78 179.567 510.134 177.157C516.468 175.33 527.515 170.597 534.424 171.235C541.116 171.854 543.449 180.157 542.467 184.189Z" fill="#3F3D56"/>
<path opacity="0.1" d="M542.467 184.189C541.69 187.382 538.34 189.94 534.629 191.727C526.827 195.483 517.203 196.605 507.869 196.981C505.488 197.126 503.099 197.081 500.724 196.849C496.124 196.404 491.807 194.42 488.474 191.217C488.236 191.062 488.041 190.849 487.908 190.599C487.774 190.348 487.707 190.067 487.711 189.783C487.715 189.499 487.792 189.221 487.933 188.975C488.074 188.728 488.275 188.521 488.518 188.374C493.487 182.915 501.78 179.567 510.134 177.157C516.468 175.33 527.515 170.597 534.424 171.235C541.116 171.854 543.449 180.157 542.467 184.189Z" fill="black"/>
<path d="M443.269 160.321C440.888 164.989 440.456 170.411 442.07 175.396C443.712 180.344 446.785 184.693 450.9 187.893C460.994 195.985 474.887 197.098 487.824 196.986C499.162 196.887 510.484 196.111 521.73 194.662C525.498 194.328 529.201 193.468 532.731 192.108C536.954 190.281 540.664 186.93 542.167 182.582C543.67 178.234 542.603 172.909 539.033 170.008C535.896 167.458 531.571 167.107 527.536 166.865L504.448 165.477C506.729 163.169 509.766 161.863 512.544 160.185C516.229 157.959 518.677 154.22 521.357 150.85C525.486 145.916 529.978 141.297 534.795 137.033C535.547 141.344 538.274 144.883 541.483 147.857C544.692 150.831 548.391 153.226 551.727 156.057C559.805 162.916 565.623 172.224 574.119 178.558C579.964 177.022 585.427 174.294 590.167 170.546L586.865 164.564C586.59 163.949 586.162 163.414 585.621 163.011C584.686 162.436 583.481 162.733 582.396 162.57C579.495 162.135 578.228 158.786 577.09 156.083C573.965 148.661 567.982 142.903 562.872 136.679C559.1 132.084 555.755 127.157 552.876 121.956C551.16 118.854 549.588 115.625 547.259 112.953C544.929 110.281 541.665 108.18 538.12 108.172C534.988 108.166 532.099 109.756 529.406 111.355C521.204 116.227 513.312 121.604 505.776 127.454C501.832 130.516 497.913 133.751 493.287 135.628C491.339 136.419 489.286 136.959 487.417 137.92C484.144 139.605 481.66 142.455 478.986 144.985C469.448 154.008 456.39 159.854 443.269 160.321Z" fill="#3F3D56"/>
<path d="M491.545 96.098C491.438 98.8561 490.851 101.575 489.811 104.131C489.284 105.407 488.5 106.56 487.508 107.518C486.515 108.477 485.336 109.221 484.043 109.704C482.208 110.196 480.284 110.258 478.42 109.887C476.795 109.717 475.23 109.183 473.839 108.326C471.674 106.837 470.595 104.182 470.201 101.583C469.808 98.9866 469.984 96.334 469.733 93.7191C469.487 91.6071 469.086 89.5162 468.531 87.4637C468.361 86.7808 468.188 86.1012 468.018 85.4215C467.851 84.7418 467.687 84.0622 467.536 83.3825C467.398 82.7437 467.269 82.1018 467.159 81.4568C467.067 80.9124 466.986 80.3649 466.926 79.8142C466.871 78.1817 466.599 76.5638 466.117 75.003C465.665 73.9908 465.099 73.0333 464.431 72.149C464.144 71.74 463.867 71.3309 463.612 70.9061C462.875 69.8022 462.533 68.4816 462.64 67.1585C462.67 66.9539 462.72 66.7527 462.788 66.5575C462.813 66.482 462.841 66.4065 462.873 66.3341C463.156 66.2572 463.416 66.1124 463.63 65.9123C463.845 65.7121 464.007 65.4626 464.103 65.1855C464.212 64.5902 464.16 63.9769 463.955 63.4077C463.72 62.6123 463.398 61.8451 462.996 61.12C462.731 60.6418 461.835 59.7796 461.828 59.232C461.816 58.1307 463.968 57.2434 464.84 56.8091C467.5 55.4769 470.467 54.8753 473.436 55.0659C475.34 55.1949 477.404 55.7802 478.455 57.3755C479.399 58.8135 479.273 60.6763 479.676 62.3472C479.718 62.5901 479.821 62.8184 479.975 63.0111C480.18 63.1983 480.439 63.317 480.714 63.351C481.18 63.4437 481.658 63.4628 482.13 63.4076H482.134C482.258 63.3977 482.382 63.3799 482.505 63.3541C483.24 63.2185 483.935 62.9184 484.538 62.4762C484.928 62.3724 485.321 62.2874 485.717 62.2213C485.734 62.2197 485.749 62.2165 485.765 62.2119C487.341 67.1867 487.546 72.5202 488.836 77.5863C489.475 80.1068 490.39 82.5958 490.519 85.1886C490.529 85.3018 490.532 85.4183 490.535 85.5347C490.554 86.3686 490.488 87.2087 490.522 88.0394C490.534 88.4135 490.577 88.786 490.648 89.1533C490.789 89.7441 490.965 90.3262 491.174 90.8966L491.183 90.9249C491.243 91.1074 491.3 91.2931 491.347 91.4787C491.381 91.614 491.413 91.7462 491.438 91.8815L491.441 91.8909C491.674 93.2813 491.709 94.6978 491.545 96.098Z" fill="#FBBEBE"/>
<path d="M469.462 63.5619C479.715 63.5619 488.027 55.25 488.027 44.9968C488.027 34.7436 479.715 26.4317 469.462 26.4317C459.209 26.4317 450.897 34.7436 450.897 44.9968C450.897 55.25 459.209 63.5619 469.462 63.5619Z" fill="#FBBEBE"/>
<path d="M587.328 146.148C586.79 141.083 584.99 136.234 582.092 132.045C582.574 134.909 583.056 137.771 583.54 140.632C582.939 140.806 582.3 140.801 581.702 140.617C581.104 140.433 580.572 140.079 580.173 139.597C579.391 138.621 578.793 137.511 578.408 136.321C576.298 131.085 573.54 126.135 570.198 121.586C558.379 120.601 546.696 115.702 536.303 109.99C525.906 104.282 516.177 97.4385 505.919 91.4882C504.141 90.4132 502.288 89.4668 500.374 88.6562C497.165 87.3692 493.562 86.7022 490.519 85.1886C490.315 85.0879 490.11 84.981 489.909 84.8708C489.221 84.497 488.57 84.0598 487.964 83.565C487.637 83.2989 487.325 83.0131 487.033 82.7091C485.515 80.9429 484.311 78.9292 483.474 76.7557C481.841 73.1434 481.259 68.7853 479.629 65.1729C480.378 64.4728 481.22 63.8789 482.13 63.4077H482.133C482.266 63.3385 482.398 63.2724 482.533 63.2094C483.178 62.9057 483.849 62.6603 484.537 62.4763C484.928 62.3724 485.321 62.2875 485.717 62.2214C485.733 62.2198 485.749 62.2166 485.765 62.212C487.603 61.9124 489.487 62.0614 491.256 62.6462C493.842 63.521 496.023 65.2673 498.197 66.9193C501.729 69.4079 505.118 72.0952 508.345 74.9684C510.138 76.6864 511.775 78.5744 513.704 80.1352C515.306 81.3722 516.996 82.4922 518.76 83.4863C529.198 89.704 539.636 95.9207 550.075 102.136C553.609 104.241 557.146 106.347 560.601 108.574C565.85 111.96 570.909 115.629 575.966 119.295C578.946 121.454 581.925 123.613 584.902 125.774C585.879 126.397 586.737 127.19 587.435 128.115C588.052 129.165 588.435 130.336 588.559 131.548C589.306 136.444 588.885 141.447 587.328 146.148Z" fill="#FBBEBE"/>
<path d="M496.149 110.06C494.896 115.676 489.22 119.072 486.252 124.005C482.565 130.129 484.069 137.246 485.453 144.26C482.923 146.441 480.392 148.622 477.86 150.802C476.463 152.001 475.066 153.206 473.562 154.267C471.369 155.736 469.077 157.052 466.702 158.206C464.462 159.358 462.222 160.511 459.981 161.664C457.898 162.835 455.692 163.77 453.402 164.452C448.987 165.585 444.298 164.792 439.931 163.48C439.416 163.345 438.921 163.143 438.458 162.879C438.186 162.716 437.948 162.501 437.76 162.246C437.329 161.474 437.173 160.579 437.316 159.707C437.76 152.357 439.556 145.16 441.347 138.017C442.304 133.732 443.59 129.527 445.195 125.44C446.769 121.938 448.578 118.547 450.611 115.289C452.853 111.191 455.51 107.333 458.54 103.776C460.015 102.407 461.256 100.806 462.215 99.0369C463.332 96.4882 462.901 93.5649 463.128 90.7896C463.301 88.7045 463.855 86.6686 464.761 84.7827V84.7796C465.246 83.7638 465.83 82.7983 466.504 81.8973C466.809 82.6084 467.115 83.3185 467.42 84.0275C467.621 84.4932 467.821 84.9579 468.018 85.4215C468.276 86.0194 468.532 86.6152 468.785 87.2088C469.519 88.9143 470.251 90.6187 470.982 92.3221C471.772 94.4675 472.898 96.4739 474.317 98.2661C474.966 99.1838 475.842 99.9176 476.859 100.396C477.876 100.874 479 101.08 480.121 100.994C481.241 100.908 482.321 100.533 483.253 99.9055C484.185 99.2779 484.939 98.4192 485.441 97.4133C486.498 95.5357 487.264 93.5081 487.712 91.4001C488.334 88.8335 488.42 86.1663 487.964 83.565C487.206 78.5556 485.076 73.4392 483.527 68.7853C482.897 67.2336 482.532 65.587 482.448 63.9143C482.451 63.7264 482.47 63.539 482.505 63.3542C482.514 63.307 482.524 63.2567 482.533 63.2095C483.178 62.9058 483.849 62.6604 484.537 62.4763C484.928 62.3725 485.321 62.2875 485.717 62.2214C487.08 69.5971 488.445 76.9728 489.811 84.3485C489.843 84.5216 489.877 84.6947 489.909 84.8709C490.104 85.9281 490.302 86.9854 490.522 88.0395C490.721 88.9961 490.935 89.9495 491.174 90.8967L491.183 90.925C491.265 91.246 491.35 91.5638 491.438 91.8816L491.441 91.891C491.684 92.7595 491.954 93.6216 492.259 94.4712C494.11 99.5908 497.335 104.745 496.149 110.06Z" fill="#1BA4FD"/>
<path d="M571.493 188.993C571.434 190.075 571.644 191.154 572.103 192.136C573.265 194.259 576.053 194.742 578.465 194.941C592.557 196.099 606.735 195.667 620.731 193.653C621.49 193.601 622.227 193.372 622.882 192.985C624.872 191.59 623.645 188.19 621.473 187.102C619.3 186.013 616.721 186.276 614.337 185.804C611.969 185.208 609.713 184.23 607.659 182.908C602.824 180.13 598.06 177.234 593.366 174.22C590.572 172.425 587.274 170.51 584.126 171.574C575.601 174.458 571.437 179.796 571.493 188.993Z" fill="#3F3D56"/>
<path d="M467.609 82.9892V82.9923C467.587 83.1245 467.565 83.2535 467.536 83.3825C467.502 83.5965 467.461 83.8136 467.42 84.0275C467.03 86.0256 466.551 88.0143 466.001 89.9904C464.49 95.4498 462.467 100.821 460.46 106.114C455.072 120.305 449.684 134.497 444.295 148.691C442.936 152.265 441.58 155.843 440.035 159.345C439.519 160.513 438.987 161.689 438.458 162.879C436.564 167.136 434.745 171.532 434.141 176.063C433.578 179.045 433.513 182.1 433.949 185.103C434.553 188.074 436.356 190.975 439.179 192.073C440.557 192.611 442.53 193.332 442.152 194.764C441.948 195.55 441.054 195.934 440.252 196.066C439.192 196.235 438.108 196.169 437.077 195.872C436.046 195.575 435.093 195.055 434.286 194.348C432.779 193.011 431.621 190.931 429.616 190.708C428.229 190.557 426.951 191.387 425.68 191.969C420.494 194.339 414.453 192.681 409.006 190.997C409.434 188.791 411.649 187.338 413.848 186.897C416.048 186.453 418.323 186.768 420.566 186.708C421.285 186.747 421.998 186.563 422.609 186.183C423.156 185.68 423.54 185.025 423.71 184.301C425.155 180.019 426.23 175.621 426.923 171.155C427.646 166.488 427.948 161.749 428.981 157.139C429.783 153.543 431.023 150.06 432.086 146.529C434.143 139.26 435.832 131.892 437.146 124.452C437.811 121.362 438.287 118.233 438.572 115.085C438.751 112.473 438.666 109.849 438.918 107.246C439.34 103.861 440.046 100.517 441.029 97.2497C441.992 93.6845 442.954 90.1215 443.914 86.5606C445.34 81.29 446.869 75.8149 450.481 71.7179C451.736 70.2756 453.274 69.1064 454.999 68.2826C456.724 67.4588 458.599 66.998 460.51 66.9288C461.226 66.9279 461.94 67.0049 462.64 67.1585C462.756 67.1868 462.873 67.2151 462.989 67.2466C463.752 67.4459 464.483 67.7487 465.164 68.1465C466.278 67.4385 466.844 67.6871 467.583 68.779C468.232 69.9345 468.537 71.2509 468.465 72.5738C468.527 76.0655 468.24 79.5546 467.609 82.9892Z" fill="#FBBEBE"/>
<path d="M468.833 87.1616L468.785 87.2088L468.531 87.4637L466.001 89.9904L464.761 84.7827L460.51 66.9287C461.226 66.9279 461.94 67.0049 462.64 67.1584C462.67 66.9539 462.72 66.7527 462.788 66.5574L462.989 67.2465L464.431 72.149L467.159 81.4567L467.609 82.9891V82.9923L468.833 87.1616Z" fill="#1BA4FD"/>
<path d="M484.887 30.2028C484.884 31.856 484.556 33.4926 483.922 35.019C483.287 36.5454 482.357 37.9317 481.186 39.0986C480.762 39.5234 480.307 39.9165 479.826 40.275C477.655 41.9119 475.01 42.7978 472.29 42.7991H457.194C453.859 42.794 450.661 41.4652 448.304 39.1047C445.947 36.7441 444.624 33.5447 444.624 30.2089C444.624 26.8732 445.947 23.6737 448.304 21.3132C450.661 18.9526 453.859 17.6239 457.194 17.6187H472.29C475.626 17.6274 478.823 18.9556 481.183 21.3134C483.543 23.6711 484.875 26.8668 484.887 30.2028Z" fill="#2F2E41"/>
<path d="M499.04 31.1516C506.165 31.1516 511.941 25.3756 511.941 18.2505C511.941 11.1253 506.165 5.34927 499.04 5.34927C491.915 5.34927 486.139 11.1253 486.139 18.2505C486.139 25.3756 491.915 31.1516 499.04 31.1516Z" fill="#2F2E41"/>
<path opacity="0.1" d="M498.726 5.34927C498.567 5.34927 498.411 5.35556 498.254 5.36121C501.591 5.48254 504.751 6.89362 507.069 9.29756C509.387 11.7015 510.683 14.9109 510.683 18.2505C510.683 21.59 509.387 24.7994 507.069 27.2033C504.751 29.6073 501.591 31.0184 498.254 31.1397C498.411 31.1453 498.567 31.1516 498.726 31.1516C502.147 31.1516 505.429 29.7924 507.848 27.373C510.268 24.9535 511.627 21.6721 511.627 18.2505C511.627 14.8289 510.268 11.5474 507.848 9.12794C505.429 6.70851 502.147 5.34927 498.726 5.34927Z" fill="black"/>
<path opacity="0.1" d="M437.366 5.34927C437.525 5.34927 437.681 5.35556 437.838 5.36121C434.501 5.48254 431.341 6.89362 429.023 9.29756C426.705 11.7015 425.409 14.9109 425.409 18.2505C425.409 21.59 426.705 24.7994 429.023 27.2033C431.341 29.6073 434.501 31.0184 437.838 31.1397C437.681 31.1453 437.525 31.1516 437.366 31.1516C433.947 31.1486 430.668 29.7881 428.251 27.3689C425.834 24.9498 424.477 21.6701 424.477 18.2505C424.477 14.8308 425.834 11.5511 428.251 9.13196C430.668 6.71284 433.947 5.35228 437.366 5.34927Z" fill="black"/>
<path opacity="0.1" d="M479.826 40.275C477.655 41.9119 475.01 42.7979 472.29 42.7991H457.194C454.475 42.7978 451.83 41.9119 449.659 40.275H479.826Z" fill="black"/>
<path d="M577.311 133.756C577.311 133.756 580.563 143.128 583.54 140.632L581.167 128.382L577.311 133.756Z" fill="#FBBEBE"/>
<path d="M1000.71 419.55C1003.74 420.651 1006.98 421.034 1010.18 420.667C1013.39 420.301 1016.46 419.196 1019.16 417.439C1021.86 415.683 1024.12 413.322 1025.76 410.544C1027.39 407.766 1028.36 404.647 1028.58 401.431C1028.81 398.216 1028.28 394.992 1027.04 392.015C1025.81 389.038 1023.9 386.388 1021.47 384.275C1019.03 382.161 1016.14 380.642 1013.02 379.837C1009.9 379.032 1006.63 378.962 1003.48 379.634L1004 390.347L998.933 381.166C993.959 383.503 990.116 387.72 988.249 392.889C987.586 394.699 987.183 396.595 987.052 398.519C986.732 403.032 987.892 407.527 990.357 411.322C992.821 415.117 996.455 418.006 1000.71 419.55Z" fill="#57B894"/>
<path d="M1025.79 543.793C1024 534.683 1031.75 526.606 1039.41 521.357C1047.06 516.107 1056.01 510.949 1058.62 502.04C1062.38 489.236 1051.19 477.51 1042.49 467.398C1036.03 459.894 1030.48 451.65 1025.97 442.841C1024.15 439.308 1022.49 435.615 1022.01 431.674C1021.33 425.999 1023.15 420.351 1024.99 414.938C1031.11 396.903 1037.65 379.02 1044.62 361.288" stroke="#3F3D56" stroke-miterlimit="10"/>
<path d="M1001.57 416.792C1004.59 417.893 1007.84 418.276 1011.04 417.909C1014.24 417.543 1017.32 416.438 1020.02 414.682C1022.72 412.925 1024.98 410.565 1026.61 407.787C1028.25 405.009 1029.22 401.889 1029.44 398.673C1029.66 395.458 1029.14 392.234 1027.9 389.257C1026.67 386.28 1024.76 383.63 1022.32 381.517C1019.89 379.403 1017 377.884 1013.88 377.079C1010.76 376.274 1007.49 376.204 1004.34 376.876L1004.86 387.589L999.79 378.408C994.816 380.745 990.973 384.962 989.106 390.131C988.443 391.941 988.04 393.837 987.909 395.761C987.589 400.274 988.749 404.769 991.214 408.564C993.678 412.359 997.312 415.248 1001.57 416.792V416.792Z" stroke="#3F3D56" stroke-miterlimit="10"/>
<path d="M1023.24 357.588C1024.43 354.308 1026.43 351.38 1029.04 349.073C1031.66 346.767 1034.82 345.157 1038.22 344.391L1039.94 354.574L1043.11 343.879C1047.52 343.944 1051.8 345.41 1055.32 348.064C1058.85 350.718 1061.44 354.423 1062.72 358.645C1064 362.866 1063.9 367.386 1062.45 371.551C1060.99 375.715 1058.25 379.31 1054.62 381.815C1050.99 384.32 1046.66 385.607 1042.25 385.489C1037.84 385.371 1033.58 383.854 1030.09 381.158C1026.59 378.462 1024.05 374.726 1022.82 370.49C1021.59 366.253 1021.74 361.735 1023.24 357.588H1023.24Z" fill="#57B894"/>
<path d="M1024.39 353.911C1025.57 350.631 1027.57 347.703 1030.19 345.396C1032.8 343.09 1035.96 341.479 1039.36 340.713L1041.08 350.897L1044.26 340.201C1048.67 340.267 1052.94 341.732 1056.47 344.387C1059.99 347.041 1062.58 350.746 1063.86 354.968C1065.14 359.189 1065.05 363.709 1063.59 367.873C1062.14 372.038 1059.4 375.633 1055.76 378.138C1052.13 380.643 1047.8 381.93 1043.39 381.812C1038.98 381.694 1034.72 380.177 1031.23 377.481C1027.74 374.785 1025.19 371.049 1023.96 366.813C1022.73 362.576 1022.88 358.058 1024.38 353.911H1024.39Z" stroke="#3F3D56" stroke-miterlimit="10"/>
<path d="M1038.84 467.604C1043.64 469.347 1048.92 469.261 1053.66 467.363C1058.41 465.464 1062.29 461.886 1064.56 457.311C1066.84 452.735 1067.35 447.482 1066 442.553C1064.66 437.623 1061.54 433.362 1057.25 430.582L1054.81 438.801L1053.08 428.497C1053.07 428.489 1053.05 428.482 1053.03 428.477C1050.46 427.543 1047.73 427.125 1045 427.246C1042.27 427.367 1039.59 428.025 1037.11 429.182C1034.63 430.339 1032.41 431.973 1030.56 433.991C1028.72 436.008 1027.29 438.369 1026.36 440.94C1025.42 443.51 1025.01 446.238 1025.13 448.97C1025.25 451.701 1025.91 454.381 1027.07 456.857C1028.23 459.334 1029.87 461.557 1031.88 463.401C1033.9 465.245 1036.26 466.674 1038.84 467.604H1038.84Z" fill="#57B894"/>
<path d="M1039.83 463.88C1044.63 465.622 1049.91 465.536 1054.65 463.638C1059.4 461.74 1063.28 458.162 1065.55 453.586C1067.83 449.011 1068.34 443.758 1067 438.828C1065.65 433.899 1062.53 429.638 1058.24 426.857L1055.8 435.076L1054.07 424.772C1054.06 424.764 1054.04 424.758 1054.02 424.752C1051.45 423.818 1048.72 423.4 1045.99 423.521C1043.26 423.642 1040.58 424.3 1038.1 425.457C1035.62 426.615 1033.4 428.249 1031.55 430.266C1029.71 432.284 1028.28 434.645 1027.35 437.215C1026.42 439.785 1026 442.514 1026.12 445.245C1026.24 447.976 1026.9 450.656 1028.06 453.133C1029.22 455.609 1030.86 457.833 1032.87 459.677C1034.89 461.521 1037.26 462.949 1039.83 463.88H1039.83Z" stroke="#3F3D56" stroke-miterlimit="10"/>
<path d="M1017.17 502.167C1017.99 506.867 1020.41 511.14 1024.01 514.27C1027.62 517.4 1032.19 519.195 1036.96 519.356C1041.73 519.517 1046.41 518.032 1050.21 515.152C1054.02 512.272 1056.71 508.171 1057.85 503.537C1058.99 498.903 1058.51 494.018 1056.47 489.701C1054.44 485.384 1050.98 481.897 1046.68 479.826C1042.38 477.755 1037.5 477.225 1032.86 478.326C1028.22 479.426 1024.09 482.09 1021.18 485.87L1030.45 499.826L1017.78 492.418C1016.8 495.572 1016.59 498.915 1017.17 502.167Z" fill="#57B894"/>
<path d="M1018.03 499.409C1018.85 504.109 1021.27 508.382 1024.87 511.512C1028.47 514.642 1033.04 516.437 1037.81 516.598C1042.58 516.759 1047.26 515.274 1051.07 512.394C1054.87 509.514 1057.57 505.413 1058.71 500.779C1059.85 496.145 1059.36 491.26 1057.33 486.943C1055.3 482.626 1051.84 479.139 1047.54 477.068C1043.24 474.997 1038.36 474.467 1033.72 475.568C1029.07 476.668 1024.95 479.332 1022.04 483.112L1031.31 497.068L1018.64 489.661C1017.66 492.814 1017.45 496.157 1018.03 499.409V499.409Z" stroke="#3F3D56" stroke-miterlimit="10"/>
<path d="M9.00746 470.249C10.9978 470.972 13.1289 471.224 15.2329 470.983C17.337 470.743 19.3563 470.017 21.1319 468.862C22.9075 467.708 24.3908 466.157 25.4648 464.332C26.5388 462.507 27.1742 460.457 27.3208 458.345C27.4675 456.232 27.1215 454.114 26.3101 452.158C25.4987 450.202 24.244 448.461 22.645 447.073C21.0459 445.684 19.1463 444.686 17.0957 444.157C15.0451 443.628 12.8997 443.582 10.8285 444.024L11.1707 451.062L7.84085 445.03C4.57278 446.566 2.04805 449.336 0.821494 452.732C0.385892 453.922 0.121078 455.167 0.034953 456.431C-0.17523 459.397 0.586979 462.35 2.20607 464.843C3.82517 467.337 6.2129 469.234 9.00746 470.249Z" fill="#57B894"/>
<path d="M25.4837 551.879C24.3083 545.893 29.4017 540.587 34.4329 537.138C39.464 533.689 45.3427 530.3 47.0593 524.446C49.5264 516.034 42.1776 508.33 36.4579 501.686C32.2144 496.756 28.5702 491.34 25.6016 485.551C24.311 483.278 23.4319 480.794 23.0049 478.215C22.5539 474.486 23.7519 470.775 24.9588 467.219C28.9794 455.37 33.2782 443.62 37.8551 431.97" stroke="#3F3D56" stroke-miterlimit="10"/>
<path d="M9.57064 468.437C11.5609 469.16 13.6921 469.412 15.7961 469.171C17.9001 468.931 19.9195 468.205 21.6951 467.05C23.4707 465.896 24.9539 464.345 26.0279 462.52C27.1019 460.695 27.7373 458.645 27.884 456.533C28.0307 454.42 27.6847 452.302 26.8733 450.346C26.0618 448.39 24.8072 446.649 23.2081 445.261C21.6091 443.872 19.7094 442.874 17.6589 442.345C15.6083 441.816 13.4628 441.77 11.3916 442.212L11.7339 449.25L8.40403 443.218C5.13595 444.754 2.61122 447.524 1.38467 450.92C0.949069 452.11 0.684259 453.355 0.598129 454.619C0.387932 457.585 1.15014 460.538 2.76923 463.031C4.38833 465.525 6.77607 467.422 9.57064 468.437V468.437Z" stroke="#3F3D56" stroke-miterlimit="10"/>
<path d="M23.8124 429.539C24.5935 427.384 25.9044 425.46 27.6244 423.945C29.3444 422.429 31.4181 421.371 33.6545 420.868L34.7803 427.559L36.8677 420.532C39.7659 420.575 42.5754 421.537 44.8907 423.281C47.206 425.025 48.9071 427.46 49.7486 430.233C50.5901 433.007 50.5283 435.976 49.5723 438.712C48.6162 441.449 46.8152 443.81 44.4295 445.456C42.0437 447.102 39.1966 447.948 36.2991 447.87C33.4016 447.793 30.6038 446.796 28.3095 445.025C26.0152 443.254 24.3432 440.799 23.5349 438.016C22.7265 435.232 22.8237 432.264 23.8124 429.539Z" fill="#57B894"/>
<path d="M24.5632 427.123C25.3443 424.968 26.6552 423.044 28.3752 421.529C30.0952 420.013 32.169 418.955 34.4053 418.452L35.5312 425.143L37.6186 418.116C40.5168 418.158 43.3263 419.121 45.6415 420.865C47.9568 422.609 49.658 425.044 50.4995 427.817C51.3409 430.591 51.2792 433.56 50.3231 436.296C49.367 439.033 47.5661 441.394 45.1803 443.04C42.7946 444.686 39.9474 445.532 37.0499 445.454C34.1525 445.377 31.3546 444.38 29.0603 442.609C26.7661 440.838 25.094 438.383 24.2857 435.599C23.4774 432.816 23.5746 429.848 24.5632 427.123V427.123Z" stroke="#3F3D56" stroke-miterlimit="10"/>
<path d="M34.0576 501.822C37.214 502.967 40.6813 502.91 43.7987 501.663C46.9162 500.416 49.4656 498.065 50.9612 495.059C52.4568 492.052 52.7939 488.601 51.9083 485.362C51.0227 482.124 48.9763 479.324 46.1592 477.497L44.5553 482.897L43.418 476.127C43.4067 476.122 43.3951 476.118 43.3832 476.114C41.6948 475.5 39.9021 475.225 38.1073 475.304C36.3126 475.384 34.551 475.816 32.9234 476.576C31.2957 477.336 29.8338 478.41 28.6213 479.736C27.4088 481.061 26.4693 482.613 25.8567 484.301C25.2441 485.99 24.9703 487.783 25.0509 489.578C25.1315 491.373 25.565 493.134 26.3266 494.761C27.0882 496.388 28.163 497.849 29.4895 499.061C30.816 500.272 32.3683 501.21 34.0576 501.822Z" fill="#57B894"/>
<path d="M34.7081 499.374C37.8645 500.519 41.3319 500.463 44.4493 499.216C47.5667 497.968 50.1162 495.618 51.6118 492.611C53.1074 489.605 53.4445 486.154 52.5589 482.915C51.6733 479.676 49.6269 476.877 46.8098 475.05L45.2059 480.45L44.0685 473.68C44.0573 473.675 44.0457 473.67 44.0337 473.667C42.3458 473.055 40.5537 472.781 38.7599 472.861C36.9661 472.941 35.2057 473.374 33.5791 474.135C30.2941 475.671 27.7539 478.449 26.5172 481.858C25.2806 485.267 25.4488 489.028 26.9849 492.313C28.521 495.597 31.2991 498.138 34.7081 499.374V499.374Z" stroke="#3F3D56" stroke-miterlimit="10"/>
<path d="M19.822 524.53C20.3647 527.618 21.9528 530.426 24.3198 532.482C26.6868 534.538 29.6889 535.718 32.8226 535.823C35.9562 535.929 39.0309 534.954 41.5309 533.061C44.0309 531.169 45.8042 528.475 46.5535 525.43C47.3027 522.385 46.9823 519.176 45.6459 516.339C44.3096 513.503 42.0386 511.212 39.2139 509.852C36.3891 508.491 33.1823 508.143 30.1314 508.866C27.0804 509.589 24.3708 511.339 22.457 513.822L28.5493 522.992L20.2249 518.125C19.5795 520.197 19.4413 522.393 19.822 524.53Z" fill="#57B894"/>
<path d="M20.3851 522.718C20.9278 525.806 22.5159 528.614 24.8829 530.67C27.25 532.726 30.252 533.906 33.3857 534.011C36.5194 534.117 39.594 533.142 42.094 531.249C44.594 529.357 46.3673 526.663 47.1166 523.618C47.8658 520.573 47.5454 517.364 46.2091 514.527C44.8727 511.691 42.6017 509.4 39.777 508.039C36.9522 506.679 33.7454 506.331 30.6945 507.054C27.6435 507.777 24.9339 509.527 23.0201 512.01L29.1124 521.18L20.788 516.313C20.1426 518.385 20.0044 520.581 20.3851 522.718V522.718Z" stroke="#3F3D56" stroke-miterlimit="10"/>
<path d="M447.171 341.116C456.56 341.116 464.171 331.266 464.171 319.116C464.171 306.965 456.56 297.116 447.171 297.116C437.782 297.116 430.171 306.965 430.171 319.116C430.171 331.266 437.782 341.116 447.171 341.116Z" fill="#2F2E41"/>
<path d="M539.671 341.616C549.06 341.616 556.671 331.766 556.671 319.616C556.671 307.465 549.06 297.616 539.671 297.616C530.282 297.616 522.671 307.465 522.671 319.616C522.671 331.766 530.282 341.616 539.671 341.616Z" fill="#2F2E41"/>
<path d="M526.671 384.616C526.671 394.556 512.791 402.616 495.671 402.616C478.551 402.616 464.671 394.556 464.671 384.616C464.671 376.006 475.081 368.806 488.991 367.046C491.206 366.753 493.438 366.61 495.671 366.616C499.414 366.603 503.147 367.006 506.801 367.816C518.421 370.406 526.671 376.956 526.671 384.616Z" fill="#2F2E41"/>
<path d="M451.171 336.116C460.56 336.116 468.171 326.266 468.171 314.116C468.171 301.965 460.56 292.116 451.171 292.116C441.782 292.116 434.171 301.965 434.171 314.116C434.171 326.266 441.782 336.116 451.171 336.116Z" stroke="#3F3D56" stroke-miterlimit="10"/>
<path d="M785 330C794.389 330 802 320.15 802 308C802 295.85 794.389 286 785 286C775.611 286 768 295.85 768 308C768 320.15 775.611 330 785 330Z" stroke="#3F3D56" stroke-miterlimit="10"/>
<path d="M782 336C791.389 336 799 326.15 799 314C799 301.85 791.389 292 782 292C772.611 292 765 301.85 765 314C765 326.15 772.611 336 782 336Z" fill="#2F2E41" stroke="#3F3D56" stroke-miterlimit="10"/>
<path d="M543.671 336.616C553.06 336.616 560.671 326.766 560.671 314.616C560.671 302.465 553.06 292.616 543.671 292.616C534.282 292.616 526.671 302.465 526.671 314.616C526.671 326.766 534.282 336.616 543.671 336.616Z" stroke="#3F3D56" stroke-miterlimit="10"/>
<path d="M902.5 330.5C911.889 330.5 919.5 320.65 919.5 308.5C919.5 296.35 911.889 286.5 902.5 286.5C893.111 286.5 885.5 296.35 885.5 308.5C885.5 320.65 893.111 330.5 902.5 330.5Z" stroke="#3F3D56" stroke-miterlimit="10"/>
<path d="M899.5 336.5C908.889 336.5 916.5 326.65 916.5 314.5C916.5 302.35 908.889 292.5 899.5 292.5C890.111 292.5 882.5 302.35 882.5 314.5C882.5 326.65 890.111 336.5 899.5 336.5Z" fill="#2F2E41" stroke="#3F3D56" stroke-miterlimit="10"/>
<path d="M499.671 397.616C516.792 397.616 530.671 389.557 530.671 379.616C530.671 369.674 516.792 361.616 499.671 361.616C482.55 361.616 468.671 369.674 468.671 379.616C468.671 389.557 482.55 397.616 499.671 397.616Z" stroke="#3F3D56" stroke-miterlimit="10"/>
<path d="M833 402C850.121 402 864 393.941 864 384C864 374.059 850.121 366 833 366C815.879 366 802 374.059 802 384C802 393.941 815.879 402 833 402Z" stroke="#3F3D56" stroke-miterlimit="10"/>
<path d="M830 408C847.121 408 861 399.941 861 390C861 380.059 847.121 372 830 372C812.879 372 799 380.059 799 390C799 399.941 812.879 408 830 408Z" fill="#2F2E41" stroke="#3F3D56" stroke-miterlimit="10"/>
<path d="M507.171 369.316C507.179 370.573 506.707 371.786 505.851 372.708C505.447 373.149 504.956 373.502 504.408 373.744C503.861 373.986 503.27 374.113 502.671 374.116H492.671C491.439 374.073 490.274 373.544 489.431 372.644C488.587 371.745 488.135 370.548 488.171 369.316C488.166 368.341 488.452 367.386 488.991 366.574C491.204 366.263 493.437 366.109 495.671 366.116C499.419 366.103 503.154 366.533 506.801 367.396C507.048 368.005 507.174 368.658 507.171 369.316Z" fill="white"/>
<path d="M864.002 375.2C864.01 376.458 863.538 377.671 862.682 378.592C862.278 379.034 861.787 379.386 861.239 379.629C860.692 379.871 860.101 379.998 859.502 380H849.502C848.27 379.957 847.105 379.428 846.262 378.529C845.418 377.629 844.965 376.433 845.002 375.2C844.997 374.225 845.282 373.271 845.822 372.459C848.035 372.148 850.267 371.994 852.502 372C856.249 371.988 859.985 372.418 863.632 373.28C863.879 373.89 864.005 374.542 864.002 375.2Z" fill="white"/>
<path d="M451.171 313.116C453.933 313.116 456.171 310.877 456.171 308.116C456.171 305.354 453.933 303.116 451.171 303.116C448.41 303.116 446.171 305.354 446.171 308.116C446.171 310.877 448.41 313.116 451.171 313.116Z" fill="white"/>
<path d="M783 313C785.761 313 788 310.761 788 308C788 305.239 785.761 303 783 303C780.239 303 778 305.239 778 308C778 310.761 780.239 313 783 313Z" fill="white"/>
<path d="M544.171 313.116C546.933 313.116 549.171 310.877 549.171 308.116C549.171 305.354 546.933 303.116 544.171 303.116C541.41 303.116 539.171 305.354 539.171 308.116C539.171 310.877 541.41 313.116 544.171 313.116Z" fill="white"/>
<path d="M901 313C903.761 313 906 310.761 906 308C906 305.239 903.761 303 901 303C898.239 303 896 305.239 896 308C896 310.761 898.239 313 901 313Z" fill="white"/>
<path opacity="0.3" d="M549.171 360.116C551.933 360.116 554.171 357.877 554.171 355.116C554.171 352.354 551.933 350.116 549.171 350.116C546.41 350.116 544.171 352.354 544.171 355.116C544.171 357.877 546.41 360.116 549.171 360.116Z" fill="#1BA4FD"/>
<path opacity="0.3" d="M912 372C914.761 372 917 369.761 917 367C917 364.239 914.761 362 912 362C909.239 362 907 364.239 907 367C907 369.761 909.239 372 912 372Z" fill="#1BA4FD"/>
<path opacity="0.3" d="M427.171 360.116C429.933 360.116 432.171 357.877 432.171 355.116C432.171 352.354 429.933 350.116 427.171 350.116C424.41 350.116 422.171 352.354 422.171 355.116C422.171 357.877 424.41 360.116 427.171 360.116Z" fill="#1BA4FD"/>
<path opacity="0.3" d="M765 372C767.761 372 770 369.761 770 367C770 364.239 767.761 362 765 362C762.239 362 760 364.239 760 367C760 369.761 762.239 372 765 372Z" fill="#1BA4FD"/>
</g>
<defs>
<clipPath id="clip0">
<rect width="1074.39" height="584.231" fill="white"/>
</clipPath>
</defs>
</svg>
